<svg width="1366" height="768" viewBox="0 0 1366 768" fill="none" xmlns="http://www.w3.org/2000/svg">
<rect width="1366" height="768" fill="#000612"/>
<g filter="url(#filter0_d)">
<rect x="311" y="195" width="744" height="378" rx="15" fill="#000612"/>
</g>
<circle cx="335.5" cy="216.5" r="10.5" fill="#FF1111"/>
<circle cx="364.5" cy="216.5" r="10.5" fill="#EEEE22"/>
<circle cx="393.5" cy="216.5" r="10.5" fill="#22EE22"/>
<g filter="url(#filter1_d)">
<path d="M489 372C489.133 372.533 489.2 373.2 489.2 374C489.2 374.767 489.133 375.433 489 376C489.133 376.533 489.2 377.2 489.2 378C489.2 378.767 489.133 379.433 489 380H487C487.133 380.533 487.2 381.2 487.2 382C487.2 382.767 487.133 383.433 487 384H482.5C482.633 384.533 482.7 385.2 482.7 386C482.7 386.767 482.633 387.433 482.5 388H479.5C479.367 387.433 479.3 386.767 479.3 386C479.3 385.2 479.367 384.533 479.5 384H475C474.867 383.433 474.8 382.767 474.8 382C474.8 381.2 474.867 380.533 475 380H473C472.867 379.433 472.8 378.767 472.8 378C472.8 377.2 472.867 376.533 473 376H477C477.133 376.533 477.2 377.2 477.2 378C477.2 378.767 477.133 379.433 477 380H479.5C479.367 379.433 479.3 378.767 479.3 378C479.3 377.2 479.367 376.533 479.5 376C479.367 375.433 479.3 374.767 479.3 374C479.3 373.2 479.367 372.533 479.5 372H475C474.867 371.433 474.8 370.767 474.8 370C474.8 369.2 474.867 368.533 475 368H473C472.867 367.433 472.8 366.767 472.8 366C472.8 365.2 472.867 364.533 473 364C472.867 363.433 472.8 362.767 472.8 362C472.8 361.2 472.867 360.533 473 360H475C474.867 359.433 474.8 358.767 474.8 358C474.8 357.2 474.867 356.533 475 356H479.5C479.367 355.433 479.3 354.767 479.3 354C479.3 353.2 479.367 352.533 479.5 352H482.5C482.633 352.533 482.7 353.2 482.7 354C482.7 354.767 482.633 355.433 482.5 356H487C487.133 356.533 487.2 357.2 487.2 358C487.2 358.767 487.133 359.433 487 360H489C489.133 360.533 489.2 361.2 489.2 362C489.2 362.767 489.133 363.433 489 364H485C484.867 363.433 484.8 362.767 484.8 362C484.8 361.2 484.867 360.533 485 360H482.5C482.633 360.533 482.7 361.2 482.7 362C482.7 362.767 482.633 363.433 482.5 364C482.633 364.533 482.7 365.2 482.7 366C482.7 366.767 482.633 367.433 482.5 368H487C487.133 368.533 487.2 369.2 487.2 370C487.2 370.767 487.133 371.433 487 372H489ZM479.5 368C479.367 367.433 479.3 366.767 479.3 366C479.3 365.2 479.367 364.533 479.5 364C479.367 363.433 479.3 362.767 479.3 362C479.3 361.2 479.367 360.533 479.5 360H477C477.133 360.533 477.2 361.2 477.2 362C477.2 362.767 477.133 363.433 477 364C477.133 364.533 477.2 365.2 477.2 366C477.2 366.767 477.133 367.433 477 368H479.5ZM485 380C484.867 379.433 484.8 378.767 484.8 378C484.8 377.2 484.867 376.533 485 376C484.867 375.433 484.8 374.767 484.8 374C484.8 373.2 484.867 372.533 485 372H482.5C482.633 372.533 482.7 373.2 482.7 374C482.7 374.767 482.633 375.433 482.5 376C482.633 376.533 482.7 377.2 482.7 378C482.7 378.767 482.633 379.433 482.5 380H485ZM529.239 370C529.239 370.767 529.172 371.433 529.039 372C529.172 372.533 529.239 373.2 529.239 374C529.239 374.767 529.172 375.433 529.039 376H518.539C518.672 376.533 518.739 377.2 518.739 378C518.739 378.767 518.672 379.433 518.539 380H527.039C527.172 380.533 527.239 381.2 527.239 382C527.239 382.767 527.172 383.433 527.039 384H517.039C516.906 383.433 516.839 382.767 516.839 382C516.839 381.2 516.906 380.533 517.039 380H514.539C514.406 379.433 514.339 378.767 514.339 378C514.339 377.2 514.406 376.533 514.539 376H513.039C512.906 375.433 512.839 374.767 512.839 374C512.839 373.2 512.906 372.533 513.039 372H514.539C514.406 371.433 514.339 370.767 514.339 370C514.339 369.2 514.406 368.533 514.539 368H517.039C516.906 367.433 516.839 366.767 516.839 366C516.839 365.2 516.906 364.533 517.039 364H527.039C527.172 364.533 527.239 365.2 527.239 366C527.239 366.767 527.172 367.433 527.039 368H529.039C529.172 368.533 529.239 369.2 529.239 370ZM525.039 372C524.906 371.433 524.839 370.767 524.839 370C524.839 369.2 524.906 368.533 525.039 368H518.539C518.672 368.533 518.739 369.2 518.739 370C518.739 370.767 518.672 371.433 518.539 372H525.039ZM549.059 376C549.192 376.533 549.259 377.2 549.259 378C549.259 378.767 549.192 379.433 549.059 380H547.059C547.192 380.533 547.259 381.2 547.259 382C547.259 382.767 547.192 383.433 547.059 384H537.059C536.925 383.433 536.859 382.767 536.859 382C536.859 381.2 536.925 380.533 537.059 380H535.059C534.925 379.433 534.859 378.767 534.859 378C534.859 377.2 534.925 376.533 535.059 376H533.059C532.925 375.433 532.859 374.767 532.859 374C532.859 373.2 532.925 372.533 533.059 372H535.059C534.925 371.433 534.859 370.767 534.859 370C534.859 369.2 534.925 368.533 535.059 368H537.059C536.925 367.433 536.859 366.767 536.859 366C536.859 365.2 536.925 364.533 537.059 364H547.059C547.192 364.533 547.259 365.2 547.259 366C547.259 366.767 547.192 367.433 547.059 368H549.059C549.192 368.533 549.259 369.2 549.259 370C549.259 370.767 549.192 371.433 549.059 372H545.059C544.925 371.433 544.859 370.767 544.859 370C544.859 369.2 544.925 368.533 545.059 368H539.059C539.192 368.533 539.259 369.2 539.259 370C539.259 370.767 539.192 371.433 539.059 372H537.059C537.192 372.533 537.259 373.2 537.259 374C537.259 374.767 537.192 375.433 537.059 376H539.059C539.192 376.533 539.259 377.2 539.259 378C539.259 378.767 539.192 379.433 539.059 380H545.059C544.925 379.433 544.859 378.767 544.859 378C544.859 377.2 544.925 376.533 545.059 376H549.059ZM557.278 366C557.278 366.767 557.211 367.433 557.078 368H558.578C558.711 368.533 558.778 369.2 558.778 370C558.778 370.767 558.711 371.433 558.578 372H557.078C557.211 372.533 557.278 373.2 557.278 374C557.278 374.767 557.211 375.433 557.078 376C557.211 376.533 557.278 377.2 557.278 378C557.278 378.767 557.211 379.433 557.078 380C557.211 380.533 557.278 381.2 557.278 382C557.278 382.767 557.211 383.433 557.078 384H553.078C552.945 383.433 552.878 382.767 552.878 382C552.878 381.2 552.945 380.533 553.078 380C552.945 379.433 552.878 378.767 552.878 378C552.878 377.2 552.945 376.533 553.078 376C552.945 375.433 552.878 374.767 552.878 374C552.878 373.2 552.945 372.533 553.078 372C552.945 371.433 552.878 370.767 552.878 370C552.878 369.2 552.945 368.533 553.078 368C552.945 367.433 552.878 366.767 552.878 366C552.878 365.2 552.945 364.533 553.078 364C552.945 363.433 552.878 362.767 552.878 362C552.878 361.2 552.945 360.533 553.078 360C552.945 359.433 552.878 358.767 552.878 358C552.878 357.2 552.945 356.533 553.078 356H557.078C557.211 356.533 557.278 357.2 557.278 358C557.278 358.767 557.211 359.433 557.078 360C557.211 360.533 557.278 361.2 557.278 362C557.278 362.767 557.211 363.433 557.078 364C557.211 364.533 557.278 365.2 557.278 366ZM569.078 372C569.211 372.533 569.278 373.2 569.278 374C569.278 374.767 569.211 375.433 569.078 376C569.211 376.533 569.278 377.2 569.278 378C569.278 378.767 569.211 379.433 569.078 380C569.211 380.533 569.278 381.2 569.278 382C569.278 382.767 569.211 383.433 569.078 384H565.078C564.945 383.433 564.878 382.767 564.878 382C564.878 381.2 564.945 380.533 565.078 380C564.945 379.433 564.878 378.767 564.878 378C564.878 377.2 564.945 376.533 565.078 376C564.945 375.433 564.878 374.767 564.878 374C564.878 373.2 564.945 372.533 565.078 372C564.945 371.433 564.878 370.767 564.878 370C564.878 369.2 564.945 368.533 565.078 368H558.578C558.445 367.433 558.378 366.767 558.378 366C558.378 365.2 558.445 364.533 558.578 364H566.578C566.711 364.533 566.778 365.2 566.778 366C566.778 366.767 566.711 367.433 566.578 368H569.078C569.211 368.533 569.278 369.2 569.278 370C569.278 370.767 569.211 371.433 569.078 372ZM589.298 374C589.298 374.767 589.231 375.433 589.098 376H587.598C587.731 376.533 587.798 377.2 587.798 378C587.798 378.767 587.731 379.433 587.598 380H585.098C585.231 380.533 585.298 381.2 585.298 382C585.298 382.767 585.231 383.433 585.098 384H577.098C576.964 383.433 576.898 382.767 576.898 382C576.898 381.2 576.964 380.533 577.098 380H574.598C574.464 379.433 574.398 378.767 574.398 378C574.398 377.2 574.464 376.533 574.598 376H573.098C572.964 375.433 572.898 374.767 572.898 374C572.898 373.2 572.964 372.533 573.098 372H574.598C574.464 371.433 574.398 370.767 574.398 370C574.398 369.2 574.464 368.533 574.598 368H577.098C576.964 367.433 576.898 366.767 576.898 366C576.898 365.2 576.964 364.533 577.098 364H585.098C585.231 364.533 585.298 365.2 585.298 366C585.298 366.767 585.231 367.433 585.098 368H587.598C587.731 368.533 587.798 369.2 587.798 370C587.798 370.767 587.731 371.433 587.598 372H589.098C589.231 372.533 589.298 373.2 589.298 374ZM585.098 376C584.964 375.433 584.898 374.767 584.898 374C584.898 373.2 584.964 372.533 585.098 372H583.598C583.464 371.433 583.398 370.767 583.398 370C583.398 369.2 583.464 368.533 583.598 368H578.598C578.731 368.533 578.798 369.2 578.798 370C578.798 370.767 578.731 371.433 578.598 372H577.098C577.231 372.533 577.298 373.2 577.298 374C577.298 374.767 577.231 375.433 577.098 376H578.598C578.731 376.533 578.798 377.2 578.798 378C578.798 378.767 578.731 379.433 578.598 380H583.598C583.464 379.433 583.398 378.767 583.398 378C583.398 377.2 583.464 376.533 583.598 376H585.098ZM619.837 350C619.837 350.767 619.77 351.433 619.637 352H617.637C617.77 352.533 617.837 353.2 617.837 354C617.837 354.767 617.77 355.433 617.637 356H619.637C619.77 356.533 619.837 357.2 619.837 358C619.837 358.767 619.77 359.433 619.637 360C619.77 360.533 619.837 361.2 619.837 362C619.837 362.767 619.77 363.433 619.637 364H614.637C614.503 363.433 614.437 362.767 614.437 362C614.437 361.2 614.503 360.533 614.637 360C614.503 359.433 614.437 358.767 614.437 358C614.437 357.2 614.503 356.533 614.637 356C614.503 355.433 614.437 354.767 614.437 354C614.437 353.2 614.503 352.533 614.637 352H616.637C616.503 351.433 616.437 350.767 616.437 350C616.437 349.2 616.503 348.533 616.637 348H619.637C619.77 348.533 619.837 349.2 619.837 350ZM627.637 356C627.77 356.533 627.837 357.2 627.837 358C627.837 358.767 627.77 359.433 627.637 360C627.77 360.533 627.837 361.2 627.837 362C627.837 362.767 627.77 363.433 627.637 364H622.637C622.503 363.433 622.437 362.767 622.437 362C622.437 361.2 622.503 360.533 622.637 360C622.503 359.433 622.437 358.767 622.437 358C622.437 357.2 622.503 356.533 622.637 356C622.503 355.433 622.437 354.767 622.437 354C622.437 353.2 622.503 352.533 622.637 352H624.637C624.503 351.433 624.437 350.767 624.437 350C624.437 349.2 624.503 348.533 624.637 348H627.637C627.77 348.533 627.837 349.2 627.837 350C627.837 350.767 627.77 351.433 627.637 352H625.637C625.77 352.533 625.837 353.2 625.837 354C625.837 354.767 625.77 355.433 625.637 356H627.637ZM646.156 380C646.29 380.533 646.356 381.2 646.356 382C646.356 382.767 646.29 383.433 646.156 384H636.156C636.023 383.433 635.956 382.767 635.956 382C635.956 381.2 636.023 380.533 636.156 380H639.156C639.023 379.433 638.956 378.767 638.956 378C638.956 377.2 639.023 376.533 639.156 376C639.023 375.433 638.956 374.767 638.956 374C638.956 373.2 639.023 372.533 639.156 372C639.023 371.433 638.956 370.767 638.956 370C638.956 369.2 639.023 368.533 639.156 368C639.023 367.433 638.956 366.767 638.956 366C638.956 365.2 639.023 364.533 639.156 364C639.023 363.433 638.956 362.767 638.956 362C638.956 361.2 639.023 360.533 639.156 360H636.156C636.023 359.433 635.956 358.767 635.956 358C635.956 357.2 636.023 356.533 636.156 356H646.156C646.29 356.533 646.356 357.2 646.356 358C646.356 358.767 646.29 359.433 646.156 360H643.156C643.29 360.533 643.356 361.2 643.356 362C643.356 362.767 643.29 363.433 643.156 364C643.29 364.533 643.356 365.2 643.356 366C643.356 366.767 643.29 367.433 643.156 368C643.29 368.533 643.356 369.2 643.356 370C643.356 370.767 643.29 371.433 643.156 372C643.29 372.533 643.356 373.2 643.356 374C643.356 374.767 643.29 375.433 643.156 376C643.29 376.533 643.356 377.2 643.356 378C643.356 378.767 643.29 379.433 643.156 380H646.156ZM687.195 380C687.329 380.533 687.395 381.2 687.395 382C687.395 382.767 687.329 383.433 687.195 384H675.195C675.062 383.433 674.995 382.767 674.995 382C674.995 381.2 675.062 380.533 675.195 380H679.195C679.062 379.433 678.995 378.767 678.995 378C678.995 377.2 679.062 376.533 679.195 376C679.062 375.433 678.995 374.767 678.995 374C678.995 373.2 679.062 372.533 679.195 372C679.062 371.433 678.995 370.767 678.995 370C678.995 369.2 679.062 368.533 679.195 368C679.062 367.433 678.995 366.767 678.995 366C678.995 365.2 679.062 364.533 679.195 364C679.062 363.433 678.995 362.767 678.995 362C678.995 361.2 679.062 360.533 679.195 360H676.195C676.062 359.433 675.995 358.767 675.995 358C675.995 357.2 676.062 356.533 676.195 356H683.195C683.329 356.533 683.395 357.2 683.395 358C683.395 358.767 683.329 359.433 683.195 360C683.329 360.533 683.395 361.2 683.395 362C683.395 362.767 683.329 363.433 683.195 364C683.329 364.533 683.395 365.2 683.395 366C683.395 366.767 683.329 367.433 683.195 368C683.329 368.533 683.395 369.2 683.395 370C683.395 370.767 683.329 371.433 683.195 372C683.329 372.533 683.395 373.2 683.395 374C683.395 374.767 683.329 375.433 683.195 376C683.329 376.533 683.395 377.2 683.395 378C683.395 378.767 683.329 379.433 683.195 380H687.195ZM709.415 374C709.415 374.767 709.348 375.433 709.215 376H707.715C707.848 376.533 707.915 377.2 707.915 378C707.915 378.767 707.848 379.433 707.715 380H705.215C705.348 380.533 705.415 381.2 705.415 382C705.415 382.767 705.348 383.433 705.215 384H697.215C697.082 383.433 697.015 382.767 697.015 382C697.015 381.2 697.082 380.533 697.215 380H694.715C694.582 379.433 694.515 378.767 694.515 378C694.515 377.2 694.582 376.533 694.715 376H693.215C693.082 375.433 693.015 374.767 693.015 374C693.015 373.2 693.082 372.533 693.215 372H694.715C694.582 371.433 694.515 370.767 694.515 370C694.515 369.2 694.582 368.533 694.715 368H697.215C697.082 367.433 697.015 366.767 697.015 366C697.015 365.2 697.082 364.533 697.215 364H705.215C705.348 364.533 705.415 365.2 705.415 366C705.415 366.767 705.348 367.433 705.215 368H707.715C707.848 368.533 707.915 369.2 707.915 370C707.915 370.767 707.848 371.433 707.715 372H709.215C709.348 372.533 709.415 373.2 709.415 374ZM705.215 376C705.082 375.433 705.015 374.767 705.015 374C705.015 373.2 705.082 372.533 705.215 372H703.715C703.582 371.433 703.515 370.767 703.515 370C703.515 369.2 703.582 368.533 703.715 368H698.715C698.848 368.533 698.915 369.2 698.915 370C698.915 370.767 698.848 371.433 698.715 372H697.215C697.348 372.533 697.415 373.2 697.415 374C697.415 374.767 697.348 375.433 697.215 376H698.715C698.848 376.533 698.915 377.2 698.915 378C698.915 378.767 698.848 379.433 698.715 380H703.715C703.582 379.433 703.515 378.767 703.515 378C703.515 377.2 703.582 376.533 703.715 376H705.215ZM729.434 366C729.434 366.767 729.368 367.433 729.234 368H727.734C727.868 368.533 727.934 369.2 727.934 370C727.934 370.767 727.868 371.433 727.734 372H726.234C726.368 372.533 726.434 373.2 726.434 374C726.434 374.767 726.368 375.433 726.234 376H725.234C725.368 376.533 725.434 377.2 725.434 378C725.434 378.767 725.368 379.433 725.234 380H723.234C723.368 380.533 723.434 381.2 723.434 382C723.434 382.767 723.368 383.433 723.234 384H719.234C719.101 383.433 719.034 382.767 719.034 382C719.034 381.2 719.101 380.533 719.234 380H717.234C717.101 379.433 717.034 378.767 717.034 378C717.034 377.2 717.101 376.533 717.234 376H716.234C716.101 375.433 716.034 374.767 716.034 374C716.034 373.2 716.101 372.533 716.234 372H714.734C714.601 371.433 714.534 370.767 714.534 370C714.534 369.2 714.601 368.533 714.734 368H713.234C713.101 367.433 713.034 366.767 713.034 366C713.034 365.2 713.101 364.533 713.234 364H717.234C717.368 364.533 717.434 365.2 717.434 366C717.434 366.767 717.368 367.433 717.234 368H718.734C718.868 368.533 718.934 369.2 718.934 370C718.934 370.767 718.868 371.433 718.734 372H720.234C720.368 372.533 720.434 373.2 720.434 374C720.434 374.767 720.368 375.433 720.234 376H722.234C722.101 375.433 722.034 374.767 722.034 374C722.034 373.2 722.101 372.533 722.234 372H723.734C723.601 371.433 723.534 370.767 723.534 370C723.534 369.2 723.601 368.533 723.734 368H725.234C725.101 367.433 725.034 366.767 725.034 366C725.034 365.2 725.101 364.533 725.234 364H729.234C729.368 364.533 729.434 365.2 729.434 366ZM749.454 370C749.454 370.767 749.387 371.433 749.254 372C749.387 372.533 749.454 373.2 749.454 374C749.454 374.767 749.387 375.433 749.254 376H738.754C738.887 376.533 738.954 377.2 738.954 378C738.954 378.767 738.887 379.433 738.754 380H747.254C747.387 380.533 747.454 381.2 747.454 382C747.454 382.767 747.387 383.433 747.254 384H737.254C737.121 383.433 737.054 382.767 737.054 382C737.054 381.2 737.121 380.533 737.254 380H734.754C734.621 379.433 734.554 378.767 734.554 378C734.554 377.2 734.621 376.533 734.754 376H733.254C733.121 375.433 733.054 374.767 733.054 374C733.054 373.2 733.121 372.533 733.254 372H734.754C734.621 371.433 734.554 370.767 734.554 370C734.554 369.2 734.621 368.533 734.754 368H737.254C737.121 367.433 737.054 366.767 737.054 366C737.054 365.2 737.121 364.533 737.254 364H747.254C747.387 364.533 747.454 365.2 747.454 366C747.454 366.767 747.387 367.433 747.254 368H749.254C749.387 368.533 749.454 369.2 749.454 370ZM745.254 372C745.121 371.433 745.054 370.767 745.054 370C745.054 369.2 745.121 368.533 745.254 368H738.754C738.887 368.533 738.954 369.2 738.954 370C738.954 370.767 738.887 371.433 738.754 372H745.254ZM787.293 380C787.426 380.533 787.493 381.2 787.493 382C787.493 382.767 787.426 383.433 787.293 384H775.293C775.16 383.433 775.093 382.767 775.093 382C775.093 381.2 775.16 380.533 775.293 380H779.293C779.16 379.433 779.093 378.767 779.093 378C779.093 377.2 779.16 376.533 779.293 376C779.16 375.433 779.093 374.767 779.093 374C779.093 373.2 779.16 372.533 779.293 372C779.16 371.433 779.093 370.767 779.093 370C779.093 369.2 779.16 368.533 779.293 368C779.16 367.433 779.093 366.767 779.093 366C779.093 365.2 779.16 364.533 779.293 364C779.16 363.433 779.093 362.767 779.093 362C779.093 361.2 779.16 360.533 779.293 360H776.293C776.16 359.433 776.093 358.767 776.093 358C776.093 357.2 776.16 356.533 776.293 356H783.293C783.426 356.533 783.493 357.2 783.493 358C783.493 358.767 783.426 359.433 783.293 360C783.426 360.533 783.493 361.2 783.493 362C783.493 362.767 783.426 363.433 783.293 364C783.426 364.533 783.493 365.2 783.493 366C783.493 366.767 783.426 367.433 783.293 368C783.426 368.533 783.493 369.2 783.493 370C783.493 370.767 783.426 371.433 783.293 372C783.426 372.533 783.493 373.2 783.493 374C783.493 374.767 783.426 375.433 783.293 376C783.426 376.533 783.493 377.2 783.493 378C783.493 378.767 783.426 379.433 783.293 380H787.293ZM799.313 360C799.179 359.433 799.113 358.767 799.113 358C799.113 357.2 799.179 356.533 799.313 356H803.313C803.446 356.533 803.513 357.2 803.513 358C803.513 358.767 803.446 359.433 803.313 360H799.313ZM807.313 380C807.446 380.533 807.513 381.2 807.513 382C807.513 382.767 807.446 383.433 807.313 384H795.313C795.179 383.433 795.113 382.767 795.113 382C795.113 381.2 795.179 380.533 795.313 380H799.313C799.179 379.433 799.113 378.767 799.113 378C799.113 377.2 799.179 376.533 799.313 376C799.179 375.433 799.113 374.767 799.113 374C799.113 373.2 799.179 372.533 799.313 372C799.179 371.433 799.113 370.767 799.113 370C799.113 369.2 799.179 368.533 799.313 368H796.313C796.179 367.433 796.113 366.767 796.113 366C796.113 365.2 796.179 364.533 796.313 364H803.313C803.446 364.533 803.513 365.2 803.513 366C803.513 366.767 803.446 367.433 803.313 368C803.446 368.533 803.513 369.2 803.513 370C803.513 370.767 803.446 371.433 803.313 372C803.446 372.533 803.513 373.2 803.513 374C803.513 374.767 803.446 375.433 803.313 376C803.446 376.533 803.513 377.2 803.513 378C803.513 378.767 803.446 379.433 803.313 380H807.313ZM817.032 366C817.032 366.767 816.965 367.433 816.832 368H818.832C818.965 368.533 819.032 369.2 819.032 370C819.032 370.767 818.965 371.433 818.832 372H817.332C817.465 372.533 817.532 373.2 817.532 374C817.532 374.767 817.465 375.433 817.332 376C817.465 376.533 817.532 377.2 817.532 378C817.532 378.767 817.465 379.433 817.332 380C817.465 380.533 817.532 381.2 817.532 382C817.532 382.767 817.465 383.433 817.332 384H813.332C813.199 383.433 813.132 382.767 813.132 382C813.132 381.2 813.199 380.533 813.332 380C813.199 379.433 813.132 378.767 813.132 378C813.132 377.2 813.199 376.533 813.332 376C813.199 375.433 813.132 374.767 813.132 374C813.132 373.2 813.199 372.533 813.332 372C813.199 371.433 813.132 370.767 813.132 370C813.132 369.2 813.199 368.533 813.332 368C813.199 367.433 813.132 366.767 813.132 366C813.132 365.2 813.199 364.533 813.332 364H816.832C816.965 364.533 817.032 365.2 817.032 366ZM829.332 372C829.465 372.533 829.532 373.2 829.532 374C829.532 374.767 829.465 375.433 829.332 376C829.465 376.533 829.532 377.2 829.532 378C829.532 378.767 829.465 379.433 829.332 380C829.465 380.533 829.532 381.2 829.532 382C829.532 382.767 829.465 383.433 829.332 384H825.332C825.199 383.433 825.132 382.767 825.132 382C825.132 381.2 825.199 380.533 825.332 380C825.199 379.433 825.132 378.767 825.132 378C825.132 377.2 825.199 376.533 825.332 376C825.199 375.433 825.132 374.767 825.132 374C825.132 373.2 825.199 372.533 825.332 372C825.199 371.433 825.132 370.767 825.132 370C825.132 369.2 825.199 368.533 825.332 368H818.832C818.699 367.433 818.632 366.767 818.632 366C818.632 365.2 818.699 364.533 818.832 364H826.832C826.965 364.533 827.032 365.2 827.032 366C827.032 366.767 826.965 367.433 826.832 368H829.332C829.465 368.533 829.532 369.2 829.532 370C829.532 370.767 829.465 371.433 829.332 372ZM839.052 378C839.052 378.767 838.985 379.433 838.852 380H843.852C843.985 380.533 844.052 381.2 844.052 382C844.052 382.767 843.985 383.433 843.852 384H835.852C835.718 383.433 835.652 382.767 835.652 382C835.652 381.2 835.718 380.533 835.852 380H833.352C833.218 379.433 833.152 378.767 833.152 378C833.152 377.2 833.218 376.533 833.352 376C833.218 375.433 833.152 374.767 833.152 374C833.152 373.2 833.218 372.533 833.352 372C833.218 371.433 833.152 370.767 833.152 370C833.152 369.2 833.218 368.533 833.352 368C833.218 367.433 833.152 366.767 833.152 366C833.152 365.2 833.218 364.533 833.352 364H837.352C837.485 364.533 837.552 365.2 837.552 366C837.552 366.767 837.485 367.433 837.352 368C837.485 368.533 837.552 369.2 837.552 370C837.552 370.767 837.485 371.433 837.352 372C837.485 372.533 837.552 373.2 837.552 374C837.552 374.767 837.485 375.433 837.352 376H838.852C838.985 376.533 839.052 377.2 839.052 378ZM849.352 368C849.485 368.533 849.552 369.2 849.552 370C849.552 370.767 849.485 371.433 849.352 372C849.485 372.533 849.552 373.2 849.552 374C849.552 374.767 849.485 375.433 849.352 376C849.485 376.533 849.552 377.2 849.552 378C849.552 378.767 849.485 379.433 849.352 380C849.485 380.533 849.552 381.2 849.552 382C849.552 382.767 849.485 383.433 849.352 384H845.352C845.218 383.433 845.152 382.767 845.152 382C845.152 381.2 845.218 380.533 845.352 380H843.852C843.718 379.433 843.652 378.767 843.652 378C843.652 377.2 843.718 376.533 843.852 376H845.352C845.218 375.433 845.152 374.767 845.152 374C845.152 373.2 845.218 372.533 845.352 372C845.218 371.433 845.152 370.767 845.152 370C845.152 369.2 845.218 368.533 845.352 368C845.218 367.433 845.152 366.767 845.152 366C845.152 365.2 845.218 364.533 845.352 364H849.352C849.485 364.533 849.552 365.2 849.552 366C849.552 366.767 849.485 367.433 849.352 368ZM868.371 380C868.504 380.533 868.571 381.2 868.571 382C868.571 382.767 868.504 383.433 868.371 384H864.371C864.238 383.433 864.171 382.767 864.171 382C864.171 381.2 864.238 380.533 864.371 380H862.871C862.738 379.433 862.671 378.767 862.671 378C862.671 377.2 862.738 376.533 862.871 376H860.371C860.504 376.533 860.571 377.2 860.571 378C860.571 378.767 860.504 379.433 860.371 380H858.371C858.504 380.533 858.571 381.2 858.571 382C858.571 382.767 858.504 383.433 858.371 384H854.371C854.238 383.433 854.171 382.767 854.171 382C854.171 381.2 854.238 380.533 854.371 380H856.371C856.238 379.433 856.171 378.767 856.171 378C856.171 377.2 856.238 376.533 856.371 376H858.371C858.238 375.433 858.171 374.767 858.171 374C858.171 373.2 858.238 372.533 858.371 372H856.371C856.238 371.433 856.171 370.767 856.171 370C856.171 369.2 856.238 368.533 856.371 368H854.371C854.238 367.433 854.171 366.767 854.171 366C854.171 365.2 854.238 364.533 854.371 364H858.371C858.504 364.533 858.571 365.2 858.571 366C858.571 366.767 858.504 367.433 858.371 368H860.371C860.504 368.533 860.571 369.2 860.571 370C860.571 370.767 860.504 371.433 860.371 372H862.871C862.738 371.433 862.671 370.767 862.671 370C862.671 369.2 862.738 368.533 862.871 368H864.371C864.238 367.433 864.171 366.767 864.171 366C864.171 365.2 864.238 364.533 864.371 364H868.371C868.504 364.533 868.571 365.2 868.571 366C868.571 366.767 868.504 367.433 868.371 368H866.871C867.004 368.533 867.071 369.2 867.071 370C867.071 370.767 867.004 371.433 866.871 372H864.371C864.504 372.533 864.571 373.2 864.571 374C864.571 374.767 864.504 375.433 864.371 376H866.871C867.004 376.533 867.071 377.2 867.071 378C867.071 378.767 867.004 379.433 866.871 380H868.371ZM879.891 348C880.024 348.533 880.091 349.2 880.091 350C880.091 350.767 880.024 351.433 879.891 352C880.024 352.533 880.091 353.2 880.091 354C880.091 354.767 880.024 355.433 879.891 356C880.024 356.533 880.091 357.2 880.091 358C880.091 358.767 880.024 359.433 879.891 360H877.891C878.024 360.533 878.091 361.2 878.091 362C878.091 362.767 878.024 363.433 877.891 364H874.891C874.757 363.433 874.691 362.767 874.691 362C874.691 361.2 874.757 360.533 874.891 360H876.891C876.757 359.433 876.691 358.767 876.691 358C876.691 357.2 876.757 356.533 876.891 356H874.891C874.757 355.433 874.691 354.767 874.691 354C874.691 353.2 874.757 352.533 874.891 352C874.757 351.433 874.691 350.767 874.691 350C874.691 349.2 874.757 348.533 874.891 348H879.891ZM887.891 352C888.024 352.533 888.091 353.2 888.091 354C888.091 354.767 888.024 355.433 887.891 356C888.024 356.533 888.091 357.2 888.091 358C888.091 358.767 888.024 359.433 887.891 360H885.891C886.024 360.533 886.091 361.2 886.091 362C886.091 362.767 886.024 363.433 885.891 364H882.891C882.757 363.433 882.691 362.767 882.691 362C882.691 361.2 882.757 360.533 882.891 360H884.891C884.757 359.433 884.691 358.767 884.691 358C884.691 357.2 884.757 356.533 884.891 356H882.891C882.757 355.433 882.691 354.767 882.691 354C882.691 353.2 882.757 352.533 882.891 352C882.757 351.433 882.691 350.767 882.691 350C882.691 349.2 882.757 348.533 882.891 348H887.891C888.024 348.533 888.091 349.2 888.091 350C888.091 350.767 888.024 351.433 887.891 352Z" fill="#FF2633"/>
</g>
<g filter="url(#filter2_d)">
<path d="M784.5 427C784.567 427.267 784.6 427.6 784.6 428C784.6 428.383 784.567 428.717 784.5 429H779.5C779.433 428.717 779.4 428.383 779.4 428C779.4 427.6 779.433 427.267 779.5 427H784.5ZM806.02 429C806.086 429.267 806.12 429.6 806.12 430C806.12 430.383 806.086 430.717 806.02 431C806.086 431.267 806.12 431.6 806.12 432C806.12 432.383 806.086 432.717 806.02 433H805.02C805.086 433.267 805.12 433.6 805.12 434C805.12 434.383 805.086 434.717 805.02 435H802.77C802.836 435.267 802.87 435.6 802.87 436C802.87 436.383 802.836 436.717 802.77 437H801.27C801.203 436.717 801.17 436.383 801.17 436C801.17 435.6 801.203 435.267 801.27 435H799.02C798.953 434.717 798.92 434.383 798.92 434C798.92 433.6 798.953 433.267 799.02 433H798.02C797.953 432.717 797.92 432.383 797.92 432C797.92 431.6 797.953 431.267 798.02 431H800.02C800.086 431.267 800.12 431.6 800.12 432C800.12 432.383 800.086 432.717 800.02 433H801.27C801.203 432.717 801.17 432.383 801.17 432C801.17 431.6 801.203 431.267 801.27 431C801.203 430.717 801.17 430.383 801.17 430C801.17 429.6 801.203 429.267 801.27 429H799.02C798.953 428.717 798.92 428.383 798.92 428C798.92 427.6 798.953 427.267 799.02 427H798.02C797.953 426.717 797.92 426.383 797.92 426C797.92 425.6 797.953 425.267 798.02 425C797.953 424.717 797.92 424.383 797.92 424C797.92 423.6 797.953 423.267 798.02 423H799.02C798.953 422.717 798.92 422.383 798.92 422C798.92 421.6 798.953 421.267 799.02 421H801.27C801.203 420.717 801.17 420.383 801.17 420C801.17 419.6 801.203 419.267 801.27 419H802.77C802.836 419.267 802.87 419.6 802.87 420C802.87 420.383 802.836 420.717 802.77 421H805.02C805.086 421.267 805.12 421.6 805.12 422C805.12 422.383 805.086 422.717 805.02 423H806.02C806.086 423.267 806.12 423.6 806.12 424C806.12 424.383 806.086 424.717 806.02 425H804.02C803.953 424.717 803.92 424.383 803.92 424C803.92 423.6 803.953 423.267 804.02 423H802.77C802.836 423.267 802.87 423.6 802.87 424C802.87 424.383 802.836 424.717 802.77 425C802.836 425.267 802.87 425.6 802.87 426C802.87 426.383 802.836 426.717 802.77 427H805.02C805.086 427.267 805.12 427.6 805.12 428C805.12 428.383 805.086 428.717 805.02 429H806.02ZM801.27 427C801.203 426.717 801.17 426.383 801.17 426C801.17 425.6 801.203 425.267 801.27 425C801.203 424.717 801.17 424.383 801.17 424C801.17 423.6 801.203 423.267 801.27 423H800.02C800.086 423.267 800.12 423.6 800.12 424C800.12 424.383 800.086 424.717 800.02 425C800.086 425.267 800.12 425.6 800.12 426C800.12 426.383 800.086 426.717 800.02 427H801.27ZM804.02 433C803.953 432.717 803.92 432.383 803.92 432C803.92 431.6 803.953 431.267 804.02 431C803.953 430.717 803.92 430.383 803.92 430C803.92 429.6 803.953 429.267 804.02 429H802.77C802.836 429.267 802.87 429.6 802.87 430C802.87 430.383 802.836 430.717 802.77 431C802.836 431.267 802.87 431.6 802.87 432C802.87 432.383 802.836 432.717 802.77 433H804.02ZM826.139 426C826.139 426.383 826.106 426.717 826.039 427C826.106 427.267 826.139 427.6 826.139 428C826.139 428.383 826.106 428.717 826.039 429H825.289C825.356 429.267 825.389 429.6 825.389 430C825.389 430.383 825.356 430.717 825.289 431C825.356 431.267 825.389 431.6 825.389 432C825.389 432.383 825.356 432.717 825.289 433H824.789C824.856 433.267 824.889 433.6 824.889 434C824.889 434.383 824.856 434.717 824.789 435H823.289C823.222 434.717 823.189 434.383 823.189 434C823.189 433.6 823.222 433.267 823.289 433H822.789C822.722 432.717 822.689 432.383 822.689 432C822.689 431.6 822.722 431.267 822.789 431H821.289C821.356 431.267 821.389 431.6 821.389 432C821.389 432.383 821.356 432.717 821.289 433H820.789C820.856 433.267 820.889 433.6 820.889 434C820.889 434.383 820.856 434.717 820.789 435H819.289C819.222 434.717 819.189 434.383 819.189 434C819.189 433.6 819.222 433.267 819.289 433H818.789C818.722 432.717 818.689 432.383 818.689 432C818.689 431.6 818.722 431.267 818.789 431C818.722 430.717 818.689 430.383 818.689 430C818.689 429.6 818.722 429.267 818.789 429H818.039C817.972 428.717 817.939 428.383 817.939 428C817.939 427.6 817.972 427.267 818.039 427C817.972 426.717 817.939 426.383 817.939 426C817.939 425.6 817.972 425.267 818.039 425H820.039C820.106 425.267 820.139 425.6 820.139 426C820.139 426.383 820.106 426.717 820.039 427C820.106 427.267 820.139 427.6 820.139 428C820.139 428.383 820.106 428.717 820.039 429C820.106 429.267 820.139 429.6 820.139 430C820.139 430.383 820.106 430.717 820.039 431H820.789C820.722 430.717 820.689 430.383 820.689 430C820.689 429.6 820.722 429.267 820.789 429H821.289C821.222 428.717 821.189 428.383 821.189 428C821.189 427.6 821.222 427.267 821.289 427C821.222 426.717 821.189 426.383 821.189 426C821.189 425.6 821.222 425.267 821.289 425H822.789C822.856 425.267 822.889 425.6 822.889 426C822.889 426.383 822.856 426.717 822.789 427C822.856 427.267 822.889 427.6 822.889 428C822.889 428.383 822.856 428.717 822.789 429H823.289C823.356 429.267 823.389 429.6 823.389 430C823.389 430.383 823.356 430.717 823.289 431H824.039C823.972 430.717 823.939 430.383 823.939 430C823.939 429.6 823.972 429.267 824.039 429C823.972 428.717 823.939 428.383 823.939 428C823.939 427.6 823.972 427.267 824.039 427C823.972 426.717 823.939 426.383 823.939 426C823.939 425.6 823.972 425.267 824.039 425H826.039C826.106 425.267 826.139 425.6 826.139 426ZM830.149 426C830.149 426.383 830.115 426.717 830.049 427H830.799C830.865 427.267 830.899 427.6 830.899 428C830.899 428.383 830.865 428.717 830.799 429H830.049C830.115 429.267 830.149 429.6 830.149 430C830.149 430.383 830.115 430.717 830.049 431C830.115 431.267 830.149 431.6 830.149 432C830.149 432.383 830.115 432.717 830.049 433C830.115 433.267 830.149 433.6 830.149 434C830.149 434.383 830.115 434.717 830.049 435H828.049C827.982 434.717 827.949 434.383 827.949 434C827.949 433.6 827.982 433.267 828.049 433C827.982 432.717 827.949 432.383 827.949 432C827.949 431.6 827.982 431.267 828.049 431C827.982 430.717 827.949 430.383 827.949 430C827.949 429.6 827.982 429.267 828.049 429C827.982 428.717 827.949 428.383 827.949 428C827.949 427.6 827.982 427.267 828.049 427C827.982 426.717 827.949 426.383 827.949 426C827.949 425.6 827.982 425.267 828.049 425C827.982 424.717 827.949 424.383 827.949 424C827.949 423.6 827.982 423.267 828.049 423C827.982 422.717 827.949 422.383 827.949 422C827.949 421.6 827.982 421.267 828.049 421H830.049C830.115 421.267 830.149 421.6 830.149 422C830.149 422.383 830.115 422.717 830.049 423C830.115 423.267 830.149 423.6 830.149 424C830.149 424.383 830.115 424.717 830.049 425C830.115 425.267 830.149 425.6 830.149 426ZM836.049 429C836.115 429.267 836.149 429.6 836.149 430C836.149 430.383 836.115 430.717 836.049 431C836.115 431.267 836.149 431.6 836.149 432C836.149 432.383 836.115 432.717 836.049 433C836.115 433.267 836.149 433.6 836.149 434C836.149 434.383 836.115 434.717 836.049 435H834.049C833.982 434.717 833.949 434.383 833.949 434C833.949 433.6 833.982 433.267 834.049 433C833.982 432.717 833.949 432.383 833.949 432C833.949 431.6 833.982 431.267 834.049 431C833.982 430.717 833.949 430.383 833.949 430C833.949 429.6 833.982 429.267 834.049 429C833.982 428.717 833.949 428.383 833.949 428C833.949 427.6 833.982 427.267 834.049 427H830.799C830.732 426.717 830.699 426.383 830.699 426C830.699 425.6 830.732 425.267 830.799 425H834.799C834.865 425.267 834.899 425.6 834.899 426C834.899 426.383 834.865 426.717 834.799 427H836.049C836.115 427.267 836.149 427.6 836.149 428C836.149 428.383 836.115 428.717 836.049 429ZM846.159 430C846.159 430.383 846.125 430.717 846.059 431H845.309C845.375 431.267 845.409 431.6 845.409 432C845.409 432.383 845.375 432.717 845.309 433H844.059C844.125 433.267 844.159 433.6 844.159 434C844.159 434.383 844.125 434.717 844.059 435H840.059C839.992 434.717 839.959 434.383 839.959 434C839.959 433.6 839.992 433.267 840.059 433H838.809C838.742 432.717 838.709 432.383 838.709 432C838.709 431.6 838.742 431.267 838.809 431H838.059C837.992 430.717 837.959 430.383 837.959 430C837.959 429.6 837.992 429.267 838.059 429H838.809C838.742 428.717 838.709 428.383 838.709 428C838.709 427.6 838.742 427.267 838.809 427H840.059C839.992 426.717 839.959 426.383 839.959 426C839.959 425.6 839.992 425.267 840.059 425H844.059C844.125 425.267 844.159 425.6 844.159 426C844.159 426.383 844.125 426.717 844.059 427H845.309C845.375 427.267 845.409 427.6 845.409 428C845.409 428.383 845.375 428.717 845.309 429H846.059C846.125 429.267 846.159 429.6 846.159 430ZM844.059 431C843.992 430.717 843.959 430.383 843.959 430C843.959 429.6 843.992 429.267 844.059 429H843.309C843.242 428.717 843.209 428.383 843.209 428C843.209 427.6 843.242 427.267 843.309 427H840.809C840.875 427.267 840.909 427.6 840.909 428C840.909 428.383 840.875 428.717 840.809 429H840.059C840.125 429.267 840.159 429.6 840.159 430C840.159 430.383 840.125 430.717 840.059 431H840.809C840.875 431.267 840.909 431.6 840.909 432C840.909 432.383 840.875 432.717 840.809 433H843.309C843.242 432.717 843.209 432.383 843.209 432C843.209 431.6 843.242 431.267 843.309 431H844.059ZM856.068 433C856.135 433.267 856.168 433.6 856.168 434C856.168 434.383 856.135 434.717 856.068 435H854.068C854.002 434.717 853.968 434.383 853.968 434C853.968 433.6 854.002 433.267 854.068 433H853.068C853.002 432.717 852.968 432.383 852.968 432C852.968 431.6 853.002 431.267 853.068 431H850.068C850.135 431.267 850.168 431.6 850.168 432C850.168 432.383 850.135 432.717 850.068 433H853.068C853.135 433.267 853.168 433.6 853.168 434C853.168 434.383 853.135 434.717 853.068 435H849.068C849.002 434.717 848.968 434.383 848.968 434C848.968 433.6 849.002 433.267 849.068 433H848.068C848.002 432.717 847.968 432.383 847.968 432C847.968 431.6 848.002 431.267 848.068 431H849.068C849.002 430.717 848.968 430.383 848.968 430C848.968 429.6 849.002 429.267 849.068 429H853.068C853.002 428.717 852.968 428.383 852.968 428C852.968 427.6 853.002 427.267 853.068 427H849.568C849.502 426.717 849.468 426.383 849.468 426C849.468 425.6 849.502 425.267 849.568 425H854.068C854.135 425.267 854.168 425.6 854.168 426C854.168 426.383 854.135 426.717 854.068 427H855.068C855.135 427.267 855.168 427.6 855.168 428C855.168 428.383 855.135 428.717 855.068 429C855.135 429.267 855.168 429.6 855.168 430C855.168 430.383 855.135 430.717 855.068 431C855.135 431.267 855.168 431.6 855.168 432C855.168 432.383 855.135 432.717 855.068 433H856.068ZM859.428 426C859.428 426.383 859.395 426.717 859.328 427H860.078C860.145 427.267 860.178 427.6 860.178 428C860.178 428.383 860.145 428.717 860.078 429C860.145 429.267 860.178 429.6 860.178 430C860.178 430.383 860.145 430.717 860.078 431C860.145 431.267 860.178 431.6 860.178 432C860.178 432.383 860.145 432.717 860.078 433C860.145 433.267 860.178 433.6 860.178 434C860.178 434.383 860.145 434.717 860.078 435H858.078C858.011 434.717 857.978 434.383 857.978 434C857.978 433.6 858.011 433.267 858.078 433C858.011 432.717 857.978 432.383 857.978 432C857.978 431.6 858.011 431.267 858.078 431C858.011 430.717 857.978 430.383 857.978 430C857.978 429.6 858.011 429.267 858.078 429C858.011 428.717 857.978 428.383 857.978 428C857.978 427.6 858.011 427.267 858.078 427C858.011 426.717 857.978 426.383 857.978 426C857.978 425.6 858.011 425.267 858.078 425H859.328C859.395 425.267 859.428 425.6 859.428 426ZM862.178 426C862.178 426.383 862.145 426.717 862.078 427H862.828C862.895 427.267 862.928 427.6 862.928 428C862.928 428.383 862.895 428.717 862.828 429C862.895 429.267 862.928 429.6 862.928 430C862.928 430.383 862.895 430.717 862.828 431C862.895 431.267 862.928 431.6 862.928 432C862.928 432.383 862.895 432.717 862.828 433C862.895 433.267 862.928 433.6 862.928 434C862.928 434.383 862.895 434.717 862.828 435H861.328C861.261 434.717 861.228 434.383 861.228 434C861.228 433.6 861.261 433.267 861.328 433C861.261 432.717 861.228 432.383 861.228 432C861.228 431.6 861.261 431.267 861.328 431C861.261 430.717 861.228 430.383 861.228 430C861.228 429.6 861.261 429.267 861.328 429C861.261 428.717 861.228 428.383 861.228 428C861.228 427.6 861.261 427.267 861.328 427H860.078C860.011 426.717 859.978 426.383 859.978 426C859.978 425.6 860.011 425.267 860.078 425H862.078C862.145 425.267 862.178 425.6 862.178 426ZM866.078 429C866.145 429.267 866.178 429.6 866.178 430C866.178 430.383 866.145 430.717 866.078 431C866.145 431.267 866.178 431.6 866.178 432C866.178 432.383 866.145 432.717 866.078 433C866.145 433.267 866.178 433.6 866.178 434C866.178 434.383 866.145 434.717 866.078 435H864.078C864.011 434.717 863.978 434.383 863.978 434C863.978 433.6 864.011 433.267 864.078 433C864.011 432.717 863.978 432.383 863.978 432C863.978 431.6 864.011 431.267 864.078 431C864.011 430.717 863.978 430.383 863.978 430C863.978 429.6 864.011 429.267 864.078 429C864.011 428.717 863.978 428.383 863.978 428C863.978 427.6 864.011 427.267 864.078 427H862.828C862.761 426.717 862.728 426.383 862.728 426C862.728 425.6 862.761 425.267 862.828 425H865.078C865.145 425.267 865.178 425.6 865.178 426C865.178 426.383 865.145 426.717 865.078 427H866.078C866.145 427.267 866.178 427.6 866.178 428C866.178 428.383 866.145 428.717 866.078 429ZM871.088 423C871.021 422.717 870.988 422.383 870.988 422C870.988 421.6 871.021 421.267 871.088 421H873.088C873.155 421.267 873.188 421.6 873.188 422C873.188 422.383 873.155 422.717 873.088 423H871.088ZM875.088 433C875.155 433.267 875.188 433.6 875.188 434C875.188 434.383 875.155 434.717 875.088 435H869.088C869.021 434.717 868.988 434.383 868.988 434C868.988 433.6 869.021 433.267 869.088 433H871.088C871.021 432.717 870.988 432.383 870.988 432C870.988 431.6 871.021 431.267 871.088 431C871.021 430.717 870.988 430.383 870.988 430C870.988 429.6 871.021 429.267 871.088 429C871.021 428.717 870.988 428.383 870.988 428C870.988 427.6 871.021 427.267 871.088 427H869.588C869.521 426.717 869.488 426.383 869.488 426C869.488 425.6 869.521 425.267 869.588 425H873.088C873.155 425.267 873.188 425.6 873.188 426C873.188 426.383 873.155 426.717 873.088 427C873.155 427.267 873.188 427.6 873.188 428C873.188 428.383 873.155 428.717 873.088 429C873.155 429.267 873.188 429.6 873.188 430C873.188 430.383 873.155 430.717 873.088 431C873.155 431.267 873.188 431.6 873.188 432C873.188 432.383 873.155 432.717 873.088 433H875.088Z" fill="#FF2633"/>
</g>
<defs>
<filter id="filter0_d" x="301" y="185" width="764" height="398" filterUnits="userSpaceOnUse" color-interpolation-filters="sRGB">
<feFlood flood-opacity="0" result="BackgroundImageFix"/>
<feColorMatrix in="SourceAlpha" type="matrix" values="0 0 0 0 0 0 0 0 0 0 0 0 0 0 0 0 0 0 127 0"/>
<feMorphology radius="5" operator="dilate" in="SourceAlpha" result="effect1_dropShadow"/>
<feOffset/>
<feGaussianBlur stdDeviation="2.5"/>
<feColorMatrix type="matrix" values="0 0 0 0 0.333333 0 0 0 0 0.333333 0 0 0 0 0.333333 0 0 0 0.25 0"/>
<feBlend mode="lighten" in2="BackgroundImageFix" result="effect1_dropShadow"/>
<feBlend mode="normal" in="SourceGraphic" in2="effect1_dropShadow" result="shape"/>
</filter>
<filter id="filter1_d" x="472.8" y="348" width="423.291" height="48" filterUnits="userSpaceOnUse" color-interpolation-filters="sRGB">
<feFlood flood-opacity="0" result="BackgroundImageFix"/>
<feColorMatrix in="SourceAlpha" type="matrix" values="0 0 0 0 0 0 0 0 0 0 0 0 0 0 0 0 0 0 127 0"/>
<feOffset dx="4" dy="4"/>
<feGaussianBlur stdDeviation="2"/>
<feColorMatrix type="matrix" values="0 0 0 0 1 0 0 0 0 0.14902 0 0 0 0 0.2 0 0 0 0.25 0"/>
<feBlend mode="lighten" in2="BackgroundImageFix" result="effect1_dropShadow"/>
<feBlend mode="normal" in="SourceGraphic" in2="effect1_dropShadow" result="shape"/>
</filter>
<filter id="filter2_d" x="777.4" y="417" width="103.788" height="26" filterUnits="userSpaceOnUse" color-interpolation-filters="sRGB">
<feFlood flood-opacity="0" result="BackgroundImageFix"/>
<feColorMatrix in="SourceAlpha" type="matrix" values="0 0 0 0 0 0 0 0 0 0 0 0 0 0 0 0 0 0 127 0"/>
<feOffset dx="2" dy="2"/>
<feGaussianBlur stdDeviation="2"/>
<feColorMatrix type="matrix" values="0 0 0 0 1 0 0 0 0 0.14902 0 0 0 0 0.2 0 0 0 0.25 0"/>
<feBlend mode="lighten" in2="BackgroundImageFix" result="effect1_dropShadow"/>
<feBlend mode="normal" in="SourceGraphic" in2="effect1_dropShadow" result="shape"/>
</filter>
</defs>
</svg>
